<?xml version="1.0" standalone="no"?>
<!DOCTYPE svg PUBLIC "-//W3C//DTD SVG 1.1//EN" "http://www.w3.org/Graphics/SVG/1.1/DTD/svg11.dtd" >
<svg xmlns="http://www.w3.org/2000/svg" xmlns:xlink="http://www.w3.org/1999/xlink" version="1.1">
<metadata>
Created by FontForge 20161003 at Wed Jun 13 12:49:51 2018
 By www-data
Copyright (c) 2016 by Inkyotter Design. All rights reserved.
</metadata>
<defs>
<font id="RifficFree-Bold" horiz-adv-x="781" >
  <font-face 
    font-family="Riffic Free Medium"
    font-weight="700"
    font-stretch="normal"
    units-per-em="1000"
    panose-1="0 0 8 0 0 0 0 0 0 0"
    ascent="800"
    descent="-200"
    x-height="534"
    cap-height="760"
    bbox="-1 -258 1367 972"
    underline-thickness="50"
    underline-position="-125"
    unicode-range="U+000D-2122"
  />
<missing-glyph horiz-adv-x="793" 
d="M784 761v-761h-775v765zM79 71h635v623h-635v-623z" />
    <glyph glyph-name=".notdef" horiz-adv-x="793" 
d="M784 761v-761h-775v765zM79 71h635v623h-635v-623z" />
    <glyph glyph-name="space" unicode=" " horiz-adv-x="275" 
 />
    <glyph glyph-name="A" unicode="A" 
d="M527 167l-254 1l-64 -159l-200 82l328 669l200 -2l235 -710l-200 -48zM473 367l-48 180l-72 -179z" />
    <glyph glyph-name="Aacute" unicode="&#xc1;" 
d="M488 806l-140 14l90 128l156 -46zM527 167l-254 1l-64 -159l-200 82l328 669l200 -2l235 -710l-200 -48zM473 367l-48 180l-72 -179z" />
    <glyph glyph-name="Acircumflex" unicode="&#xc2;" 
d="M397 795h-128l98 99h140l89 -99l-125 -1l-37 52zM527 167l-254 1l-64 -159l-200 82l328 669l200 -2l235 -710l-200 -48zM473 367l-48 180l-72 -179z" />
    <glyph glyph-name="Adieresis" unicode="&#xc4;" 
d="M527 167l-254 1l-64 -159l-200 82l328 669l200 -2l235 -710l-200 -48zM473 367l-48 180l-72 -179zM303 824.5q-19 20.5 -19 48.5q0 26 20 44.5t48 18.5q27 0 45.5 -18t18.5 -46t-19 -48t-45 -20q-30 0 -49 20.5zM476 824q-18 20 -18 49q0 26 20 44.5t48 18.5
q27 0 45.5 -18t18.5 -46t-19 -48t-45 -20q-32 0 -50 20z" />
    <glyph glyph-name="Agrave" unicode="&#xc0;" 
d="M384 802l-106 96l156 46l90 -128zM527 167l-254 1l-64 -159l-200 82l328 669l200 -2l235 -710l-200 -48zM473 367l-48 180l-72 -179z" />
    <glyph glyph-name="Aring" unicode="&#xc5;" 
d="M527 167l-254 1l-64 -159l-200 82l325 663q-36 38 -36 85q0 33 19 64t51 50t69 19q36 0 67.5 -18t50.5 -48.5t19 -64.5q0 -24 -9.5 -46.5t-26.5 -40.5l234 -706l-200 -48zM402 871.5q-13 -12.5 -13 -31.5t12.5 -31t32.5 -12t32.5 12t12.5 31t-12.5 31.5t-32.5 12.5
q-19 0 -32 -12.5zM473 367l-48 180l-72 -179z" />
    <glyph glyph-name="Atilde" unicode="&#xc3;" 
d="M340 796l-111 11q7 76 43.5 110.5t84.5 34.5q18 0 36 -6t45 -18q3 -1 20.5 -8.5t29.5 -7.5q25 0 30 37l100 -11q-12 -68 -41 -107.5t-67 -39.5q-15 0 -32.5 6.5t-41.5 18.5q-15 8 -30.5 14t-25.5 6q-29 0 -40 -40zM527 167l-254 1l-64 -159l-200 82l328 669l200 -2
l235 -710l-200 -48zM473 367l-48 180l-72 -179z" />
    <glyph glyph-name="AE" unicode="&#xc6;" horiz-adv-x="1120" 
d="M1111 213v-200l-528 -12l-6 177h-251l-99 -169l-218 82l471 669l605 18l14 -200l-335 -4l5 -96l277 18l10 -200l-276 -10l5 -86zM571 361l-8 220l-133 -226z" />
    <glyph glyph-name="B" unicode="B" horiz-adv-x="585" 
d="M419 418q44 0 79.5 -25t56.5 -69.5t21 -99.5q0 -114 -102 -169.5t-313 -55.5h-152l4 728q36 22 110.5 30.5t141.5 8.5q62 0 119 -24t92.5 -65t35.5 -91q0 -61 -31.5 -110t-82.5 -59q7 1 21 1zM305.5 598q-21.5 17 -55.5 17q-25 0 -47 -11v-114q12 -4 29 -4q37 0 66 20
t29 48q0 27 -21.5 44zM327.5 188q34.5 26 34.5 64q0 31 -26 50t-64 19t-69 -17v-134q19 -8 41 -8q49 0 83.5 26z" />
    <glyph glyph-name="C" unicode="C" horiz-adv-x="725" 
d="M182.5 46.5q-84.5 53.5 -134 143t-49.5 192.5q0 105 51 192.5t138.5 139t190.5 51.5q75 0 144.5 -28.5t120.5 -86.5t72 -141l-174 -53q-15 43 -60 76t-106 33q-76 0 -126.5 -46.5t-50.5 -134.5q0 -59 24 -102.5t64 -66t87 -22.5q42 0 78 18t59.5 44.5t30.5 50.5l163 -56
q-12 -70 -62 -129t-124 -93.5t-153 -34.5q-99 0 -183.5 53.5z" />
    <glyph glyph-name="Ccedilla" unicode="&#xc7;" horiz-adv-x="725" 
d="M452 211q36 18 59.5 44.5t30.5 50.5l163 -56q-11 -65 -54 -120t-107.5 -90.5t-136.5 -44.5l-5 -22q38 3 63.5 -18t25.5 -56q0 -38 -23 -63t-61 -25q-37 0 -62.5 24t-21.5 59l56 2q2 -26 25 -28q11 0 18 7.5t7 19.5q0 13 -10 20t-29 7q-11 0 -62 -6l11 78q-93 7 -171 62
t-123.5 141.5t-45.5 184.5q0 105 51 192.5t138.5 139t190.5 51.5q75 0 144.5 -28.5t120.5 -86.5t72 -141l-174 -53q-15 43 -60 76t-106 33q-76 0 -126.5 -46.5t-50.5 -134.5q0 -59 24 -102.5t64 -66t87 -22.5q42 0 78 18z" />
    <glyph glyph-name="D" unicode="D" horiz-adv-x="672" 
d="M419.5 711q109.5 -55 176.5 -150.5t67 -212.5q0 -179 -130 -267t-350 -88q-88 0 -174 10l8 725q46 20 86.5 29t86.5 9q120 0 229.5 -55zM446 379q0 51 -28.5 89t-74 58.5t-93.5 20.5q-25 0 -42 -4v-339q238 -5 238 175z" />
    <glyph glyph-name="Eth" unicode="&#xd0;" horiz-adv-x="726" 
d="M474.5 711q109.5 -55 176.5 -150.5t67 -212.5q0 -179 -130 -267t-350 -88q-88 0 -174 10l3 276l-58 -2l13 198l47 -3l3 256q46 20 86.5 29t86.5 9q120 0 229.5 -55zM501 379q0 51 -28.5 89t-74 58.5t-93.5 20.5q-25 0 -42 -4v-82l89 -5l-24 -169l-65 -2v-81
q238 -5 238 175z" />
    <glyph glyph-name="E" unicode="E" horiz-adv-x="572" 
d="M563 212v-200l-528 -12l-26 760l528 17l14 -200l-338 -4l4 -79l281 6l10 -200l-279 -6l5 -95z" />
    <glyph glyph-name="Eacute" unicode="&#xc9;" horiz-adv-x="572" 
d="M304 809l-140 14l90 128l156 -46zM563 212v-200l-528 -12l-26 760l528 17l14 -200l-338 -4l4 -79l281 6l10 -200l-279 -6l5 -95z" />
    <glyph glyph-name="Ecircumflex" unicode="&#xca;" horiz-adv-x="572" 
d="M248 802h-128l98 99h140l89 -99l-125 -1l-37 52zM563 212v-200l-528 -12l-26 760l528 17l14 -200l-338 -4l4 -79l281 6l10 -200l-279 -6l5 -95z" />
    <glyph glyph-name="Edieresis" unicode="&#xcb;" horiz-adv-x="572" 
d="M148 812.5q-19 20.5 -19 48.5q0 26 20 44.5t48 18.5q27 0 45.5 -18t18.5 -46t-19 -48t-45 -20q-30 0 -49 20.5zM321 812q-18 20 -18 49q0 26 20 44.5t48 18.5q27 0 45.5 -18t18.5 -46t-19 -48t-45 -20q-32 0 -50 20zM563 212v-200l-528 -12l-26 760l528 17l14 -200
l-338 -4l4 -79l281 6l10 -200l-279 -6l5 -95z" />
    <glyph glyph-name="Egrave" unicode="&#xc8;" horiz-adv-x="572" 
d="M226 801l-106 96l156 46l90 -128zM563 212v-200l-528 -12l-26 760l528 17l14 -200l-338 -4l4 -79l281 6l10 -200l-279 -6l5 -95z" />
    <glyph glyph-name="F" unicode="F" horiz-adv-x="520" 
d="M192 552l3 -88l237 3l16 -200l-247 -3l8 -265h-200v752l502 9v-200z" />
    <glyph glyph-name="G" unicode="G" horiz-adv-x="734" 
d="M736 334q0 -73 -34.5 -143t-95.5 -119.5t-137 -65.5q-38 -8 -73 -8q-87 0 -167 39t-136.5 109t-75.5 158q-7 34 -7 73q0 86 37.5 166t105.5 136t155 75q42 8 83 8q69 0 133.5 -19.5t105.5 -56.5l-106 -164q-22 21 -57.5 32.5t-72.5 11.5q-22 0 -45 -5
q-55 -13 -90.5 -61.5t-35.5 -107.5q0 -16 3 -33q14 -62 60 -102.5t104 -40.5q14 0 29 3q33 7 64.5 27t38.5 45l-178 34l41 179l331 -66q20 -47 20 -104z" />
    <glyph glyph-name="H" unicode="H" horiz-adv-x="644" 
d="M433 275l-224 24v-298h-200v758h200v-261l223 -23l-2 281l200 4l5 -767l-200 1z" />
    <glyph glyph-name="I" unicode="I" horiz-adv-x="218" 
d="M15 760h194l-6 -760h-194z" />
    <glyph glyph-name="Iacute" unicode="&#xcd;" horiz-adv-x="218" 
d="M49 804l44 86l96 -39l-60 -54zM15 760h194l-6 -760h-194z" />
    <glyph glyph-name="Icircumflex" unicode="&#xce;" horiz-adv-x="218" 
d="M87 795h-88l65 111h96l58 -110l-86 -2l-23 56zM15 760h194l-6 -760h-194z" />
    <glyph glyph-name="Idieresis" unicode="&#xcf;" horiz-adv-x="218" 
d="M21 792q-14 15 -14 37t14 35.5t36 13.5q21 0 33 -13t12 -35q0 -23 -13 -38t-33 -15q-21 0 -35 15zM129.5 791.5q-13.5 14.5 -13.5 35.5q0 23 13 37t35 14t34.5 -13t12.5 -35q0 -23 -14 -38t-34 -15t-33.5 14.5zM15 760h194l-6 -760h-194z" />
    <glyph glyph-name="Igrave" unicode="&#xcc;" horiz-adv-x="218" 
d="M10 842l106 46l65 -88l-90 -14zM15 760h194l-6 -760h-194z" />
    <glyph glyph-name="J" unicode="J" horiz-adv-x="584" 
d="M552 346q8 -32 8 -71q0 -75 -35 -139t-96 -101.5t-137 -37.5q-57 0 -115 22.5t-103.5 64t-65.5 93.5l168 112q8 -29 34 -47.5t56 -18.5q34 0 55.5 24.5t21.5 63.5q0 9 -4 31l-54 242l-222 7l27 175l470 -23l15 -167l-77 2z" />
    <glyph glyph-name="K" unicode="K" horiz-adv-x="679" 
d="M264 268l-55 -56v-209h-199v754h199v-234l255 252l159 -146l-207 -209l254 -304l-166 -147z" />
    <glyph glyph-name="L" unicode="L" horiz-adv-x="488" 
d="M479 198v-200h-470v762h200v-562h270z" />
    <glyph glyph-name="Lslash" unicode="&#x141;" horiz-adv-x="567" 
d="M558 198v-200h-470v276l-57 -32l-22 185l79 46v287h200v-170l71 41l22 -194l-93 -52v-187h270z" />
    <glyph glyph-name="M" unicode="M" horiz-adv-x="861" 
d="M652 -2l-21 449l-96 -449h-200l-111 420l-5 -409l-200 -1v758l144 -9l153 -5l112 -402l76 408h194h119l35 -753z" />
    <glyph glyph-name="N" unicode="N" horiz-adv-x="730" 
d="M721 772l-6 -772h-194l-315 425l4 -424l-194 -7l-7 781l194 -8l321 -421l3 419z" />
    <glyph glyph-name="Ntilde" unicode="&#xd1;" horiz-adv-x="730" 
d="M279 807l-111 11q7 76 43.5 110.5t84.5 34.5q18 0 36 -6t45 -18q3 -1 20.5 -8.5t29.5 -7.5q25 0 30 37l100 -11q-12 -68 -41 -107.5t-67 -39.5q-15 0 -32.5 6.5t-41.5 18.5q-15 8 -30.5 14t-25.5 6q-29 0 -40 -40zM721 772l-6 -772h-194l-315 425l4 -424l-194 -7l-7 781
l194 -8l321 -421l3 419z" />
    <glyph glyph-name="O" unicode="O" horiz-adv-x="801" 
d="M209 47.5q-91 54.5 -145.5 144t-54.5 190.5t54.5 189.5t145.5 141t194 52.5q102 0 192 -52.5t143.5 -140.5t53.5 -190q0 -103 -53.5 -192.5t-143.5 -143t-192 -53.5q-103 0 -194 54.5zM494.5 218q44.5 25 71 68t26.5 96q0 52 -26.5 94t-71.5 65.5t-100 23.5
q-52 0 -94.5 -23.5t-66.5 -65t-24 -93.5q0 -54 24.5 -97.5t67 -68t96.5 -24.5q53 0 97.5 25z" />
    <glyph glyph-name="Oacute" unicode="&#xd3;" horiz-adv-x="801" 
d="M290 820l90 128l156 -46l-106 -96zM209 47.5q-91 54.5 -145.5 144t-54.5 190.5t54.5 189.5t145.5 141t194 52.5q102 0 192 -52.5t143.5 -140.5t53.5 -190q0 -103 -53.5 -192.5t-143.5 -143t-192 -53.5q-103 0 -194 54.5zM494.5 218q44.5 25 71 68t26.5 96q0 52 -26.5 94
t-71.5 65.5t-100 23.5q-52 0 -94.5 -23.5t-66.5 -65t-24 -93.5q0 -54 24.5 -97.5t67 -68t96.5 -24.5q53 0 97.5 25z" />
    <glyph glyph-name="Ocircumflex" unicode="&#xd4;" horiz-adv-x="801" 
d="M367 804h-128l98 99h140l89 -99l-125 -1l-37 52zM595 712.5q90 -52.5 143.5 -140.5t53.5 -190q0 -103 -53.5 -192.5t-143.5 -143t-192 -53.5q-103 0 -194 54.5t-145.5 144t-54.5 190.5t54.5 189.5t145.5 141t194 52.5q102 0 192 -52.5zM494.5 218q44.5 25 71 68t26.5 96
q0 52 -26.5 94t-71.5 65.5t-100 23.5q-52 0 -94.5 -23.5t-66.5 -65t-24 -93.5q0 -54 24.5 -97.5t67 -68t96.5 -24.5q53 0 97.5 25z" />
    <glyph glyph-name="Odieresis" unicode="&#xd6;" horiz-adv-x="801" 
d="M267 821.5q-19 20.5 -19 48.5q0 26 20 44.5t48 18.5q27 0 45.5 -18t18.5 -46t-19 -48t-45 -20q-30 0 -49 20.5zM440 821q-18 20 -18 49q0 26 20 44.5t48 18.5q27 0 45.5 -18t18.5 -46t-19 -48t-45 -20q-32 0 -50 20zM209 47.5q-91 54.5 -145.5 144t-54.5 190.5
t54.5 189.5t145.5 141t194 52.5q102 0 192 -52.5t143.5 -140.5t53.5 -190q0 -103 -53.5 -192.5t-143.5 -143t-192 -53.5q-103 0 -194 54.5zM494.5 218q44.5 25 71 68t26.5 96q0 52 -26.5 94t-71.5 65.5t-100 23.5q-52 0 -94.5 -23.5t-66.5 -65t-24 -93.5q0 -54 24.5 -97.5
t67 -68t96.5 -24.5q53 0 97.5 25z" />
    <glyph glyph-name="Ograve" unicode="&#xd2;" horiz-adv-x="801" 
d="M224 903l156 46l90 -128l-140 -14zM209 47.5q-91 54.5 -145.5 144t-54.5 190.5t54.5 189.5t145.5 141t194 52.5q102 0 192 -52.5t143.5 -140.5t53.5 -190q0 -103 -53.5 -192.5t-143.5 -143t-192 -53.5q-103 0 -194 54.5zM494.5 218q44.5 25 71 68t26.5 96q0 52 -26.5 94
t-71.5 65.5t-100 23.5q-52 0 -94.5 -23.5t-66.5 -65t-24 -93.5q0 -54 24.5 -97.5t67 -68t96.5 -24.5q53 0 97.5 25z" />
    <glyph glyph-name="Oslash" unicode="&#xd8;" horiz-adv-x="810" 
d="M739 586q61 -95 61 -197t-53.5 -191.5t-143 -143t-192.5 -53.5q-85 0 -165 41l-60 -66l-177 162l62 67q-54 89 -54 184q0 101 54.5 189.5t145 141t194.5 52.5q77 0 150 -34l46 50l194 -133zM197 342l225 245q-4 1 -14 1q-55 0 -104.5 -29t-80 -77t-30.5 -100q0 -23 4 -40
zM595 428l-220 -244h13q55 0 104 28t78.5 74.5t29.5 99.5q0 19 -5 42z" />
    <glyph glyph-name="Otilde" unicode="&#xd5;" horiz-adv-x="801" 
d="M455.5 797.5q-17.5 6.5 -41.5 18.5q-15 8 -30.5 14t-25.5 6q-29 0 -40 -40l-111 11q7 76 43.5 110.5t84.5 34.5q18 0 36 -6t45 -18q3 -1 20.5 -8.5t29.5 -7.5q25 0 30 37l100 -11q-12 -68 -41 -107.5t-67 -39.5q-15 0 -32.5 6.5zM209 47.5q-91 54.5 -145.5 144
t-54.5 190.5t54.5 189.5t145.5 141t194 52.5q102 0 192 -52.5t143.5 -140.5t53.5 -190q0 -103 -53.5 -192.5t-143.5 -143t-192 -53.5q-103 0 -194 54.5zM494.5 218q44.5 25 71 68t26.5 96q0 52 -26.5 94t-71.5 65.5t-100 23.5q-52 0 -94.5 -23.5t-66.5 -65t-24 -93.5
q0 -54 24.5 -97.5t67 -68t96.5 -24.5q53 0 97.5 25z" />
    <glyph glyph-name="OE" unicode="&#x152;" horiz-adv-x="1144" 
d="M1135 212v-200l-528 -12l-2 53q-93 -60 -202 -60q-103 0 -194 54.5t-145.5 144t-54.5 190.5t54.5 189.5t145.5 141t194 52.5q95 0 179 -45l-1 40l528 17l14 -200l-338 -4l4 -79l281 6l10 -200l-279 -6l5 -95zM494.5 218q44.5 25 71 68t26.5 96q0 52 -26.5 94t-71.5 65.5
t-100 23.5q-52 0 -94.5 -23.5t-66.5 -65t-24 -93.5q0 -54 24.5 -97.5t67 -68t96.5 -24.5q53 0 97.5 25z" />
    <glyph glyph-name="P" unicode="P" horiz-adv-x="602" 
d="M423 727q77 -37 123.5 -102t46.5 -146q0 -77 -41 -142t-112.5 -103t-156.5 -38q-27 0 -60 5l5 -201h-200l-20 695q136 69 250 69q88 0 165 -37zM266 375q32 0 61.5 14t47.5 38t18 52q0 49 -36 81.5t-84 32.5q-30 0 -58 -15l4 -194q23 -9 47 -9z" />
    <glyph glyph-name="Thorn" unicode="&#xde;" horiz-adv-x="651" 
d="M205 -77h-196l3 836h208l-1 -107q39 7 83 7q93 0 170.5 -36.5t123.5 -104.5t46 -159q0 -100 -47.5 -176t-130.5 -117t-185 -41q-41 0 -72 5zM211 231q11 -2 34 -2q69 0 115.5 35t43.5 95q-4 59 -40.5 91t-97.5 32q-21 0 -51 -5z" />
    <glyph glyph-name="Q" unicode="Q" horiz-adv-x="801" 
d="M764 241.5q-28 -67.5 -78 -121.5l87 -116l-178 -113l-85 118q-54 -16 -107 -16q-103 0 -194 54.5t-145.5 144t-54.5 190.5t54.5 189.5t145.5 141t194 52.5q102 0 192 -52.5t143.5 -140.5t53.5 -190q0 -73 -28 -140.5zM494.5 218q44.5 25 71 68t26.5 96q0 52 -26.5 94
t-71.5 65.5t-100 23.5q-52 0 -94.5 -23.5t-66.5 -65t-24 -93.5q0 -54 24.5 -97.5t67 -68t96.5 -24.5q53 0 97.5 25z" />
    <glyph glyph-name="R" unicode="R" horiz-adv-x="590" 
d="M500 184q34 -23 78 -23v-200q-72 0 -141.5 30.5t-121 84.5t-73.5 121l-27 2l2 -191h-200l-8 715q35 20 101.5 31.5t131.5 11.5q109 0 185 -35t115 -97t39 -144q0 -80 -35.5 -142t-97.5 -100q18 -41 52 -64zM213 392q17 -7 39 -7q31 0 61 13t49 36t19 52q0 24 -13.5 47
t-36.5 37t-50 14q-17 0 -38.5 -5t-31.5 -11z" />
    <glyph glyph-name="S" unicode="S" horiz-adv-x="624" 
d="M142 27.5q-81 35.5 -133 94.5l135 148q32 -36 75.5 -56.5t87.5 -20.5q40 0 65 15t25 35t-24 29t-62 9q-74 0 -136.5 31t-100 85.5t-37.5 122.5q0 70 39 126t105 88t144 32q79 0 154 -30.5t132 -87.5l-113 -153q-94 69 -178 69q-37 0 -64 -13t-27 -31q0 -19 32 -28.5
t76 -9.5q80 0 143 -25t99 -74t36 -119q0 -75 -42.5 -137.5t-113.5 -98.5t-154 -36q-82 0 -163 35.5z" />
    <glyph glyph-name="Scaron" unicode="&#x160;" horiz-adv-x="624" 
d="M142 27.5q-81 35.5 -133 94.5l135 148q32 -36 75.5 -56.5t87.5 -20.5q40 0 65 15t25 35t-24 29t-62 9q-74 0 -136.5 31t-100 85.5t-37.5 122.5q0 70 39 126t105 88t144 32q79 0 154 -30.5t132 -87.5l-113 -153q-94 69 -178 69q-37 0 -64 -13t-27 -31q0 -19 32 -28.5
t76 -9.5q80 0 143 -25t99 -74t36 -119q0 -75 -42.5 -137.5t-113.5 -98.5t-154 -36q-82 0 -163 35.5zM476 887l-89 -99h-140l-98 99h128l37 -51l37 52z" />
    <glyph glyph-name="T" unicode="T" horiz-adv-x="662" 
d="M429 570l2 -568l-198 -9l-2 572l-208 -5l-14 200l628 15l16 -200z" />
    <glyph glyph-name="U" unicode="U" horiz-adv-x="660" 
d="M160 45q-73 55 -112 158.5t-39 244.5q0 165 40 312l215 -52q-10 -47 -16 -102.5t-13 -140.5l-3 -29q0 -246 101 -246q99 0 99 241q0 41 -13 125t-33 160l212 60q53 -148 53 -345q0 -134 -39 -233.5t-110.5 -153.5t-168.5 -54q-100 0 -173 55z" />
    <glyph glyph-name="Uacute" unicode="&#xda;" horiz-adv-x="660" 
d="M223 763l90 128l156 -46l-106 -96zM160 45q-73 55 -112 158.5t-39 244.5q0 165 40 312l215 -52q-10 -47 -16 -102.5t-13 -140.5l-3 -29q0 -246 101 -246q99 0 99 241q0 41 -13 125t-33 160l212 60q53 -148 53 -345q0 -134 -39 -233.5t-110.5 -153.5t-168.5 -54
q-100 0 -173 55z" />
    <glyph glyph-name="Ucircumflex" unicode="&#xdb;" horiz-adv-x="660" 
d="M300 763h-107l82 80h117l75 -80l-105 -1l-31 42zM651 431q0 -134 -39 -233.5t-110.5 -153.5t-168.5 -54q-100 0 -173 55t-112 158.5t-39 244.5q0 165 40 312l215 -52q-10 -47 -16 -102.5t-13 -140.5l-3 -29q0 -246 101 -246q99 0 99 241q0 41 -13 125t-33 160l212 60
q53 -148 53 -345z" />
    <glyph glyph-name="Udieresis" unicode="&#xdc;" horiz-adv-x="660" 
d="M196 789.5q-19 20.5 -19 48.5q0 26 20 44.5t48 18.5q27 0 45.5 -18t18.5 -46t-19 -48t-45 -20q-30 0 -49 20.5zM369 789q-18 20 -18 49q0 26 20 44.5t48 18.5q27 0 45.5 -18t18.5 -46t-19 -48t-45 -20q-32 0 -50 20zM160 45q-73 55 -112 158.5t-39 244.5q0 165 40 312
l215 -52q-10 -47 -16 -102.5t-13 -140.5l-3 -29q0 -246 101 -246q99 0 99 241q0 41 -13 125t-33 160l212 60q53 -148 53 -345q0 -134 -39 -233.5t-110.5 -153.5t-168.5 -54q-100 0 -173 55z" />
    <glyph glyph-name="Ugrave" unicode="&#xd9;" horiz-adv-x="660" 
d="M168 846l156 46l90 -128l-140 -14zM160 45q-73 55 -112 158.5t-39 244.5q0 165 40 312l215 -52q-10 -47 -16 -102.5t-13 -140.5l-3 -29q0 -246 101 -246q99 0 99 241q0 41 -13 125t-33 160l212 60q53 -148 53 -345q0 -134 -39 -233.5t-110.5 -153.5t-168.5 -54
q-100 0 -173 55z" />
    <glyph glyph-name="V" unicode="V" horiz-adv-x="732" 
d="M723 706l-196 -702l-202 -36l-316 708l200 92l198 -447l120 439z" />
    <glyph glyph-name="W" unicode="W" horiz-adv-x="1146" 
d="M1137 671l-261 -687h-242l-80 373l-81 -353h-251l-212 690l223 70l120 -430l117 412h184l95 -446l155 483z" />
    <glyph glyph-name="X" unicode="X" horiz-adv-x="722" 
d="M521 -22l-159 221l-168 -221l-185 127l217 282l-190 263l170 111l152 -202l160 209l184 -121l-206 -271l217 -289z" />
    <glyph glyph-name="Y" unicode="Y" horiz-adv-x="742" 
d="M469 321l1 -322h-200l-1 339l-260 339l210 87l159 -232l155 232l200 -49z" />
    <glyph glyph-name="Yacute" unicode="&#xdd;" horiz-adv-x="742" 
d="M426 768l-140 14l90 128l156 -46zM469 321l1 -322h-200l-1 339l-260 339l210 87l159 -232l155 232l200 -49z" />
    <glyph glyph-name="Ycircumflex" unicode="&#x176;" horiz-adv-x="742" 
d="M348 798h-128l98 99h140l89 -99l-125 -1l-37 52zM469 321l1 -322h-200l-1 339l-260 339l210 87l159 -232l155 232l200 -49z" />
    <glyph glyph-name="Ydieresis" unicode="&#x178;" horiz-adv-x="742" 
d="M246 810.5q-19 20.5 -19 48.5q0 26 20 44.5t48 18.5q27 0 45.5 -18t18.5 -46t-19 -48t-45 -20q-30 0 -49 20.5zM419 810q-18 20 -18 49q0 26 20 44.5t48 18.5q27 0 45.5 -18t18.5 -46t-19 -48t-45 -20q-32 0 -50 20zM469 321l1 -322h-200l-1 339l-260 339l210 87
l159 -232l155 232l200 -49z" />
    <glyph glyph-name="Ygrave" unicode="&#x1ef2;" horiz-adv-x="742" 
d="M323 785l-106 96l156 46l90 -128zM469 321l1 -322h-200l-1 339l-260 339l210 87l159 -232l155 232l200 -49z" />
    <glyph glyph-name="Z" unicode="Z" horiz-adv-x="590" 
d="M581 572l-289 -382h278v-196h-561v193l286 382l-259 -1v195l545 1v-192z" />
    <glyph glyph-name="Zcaron" unicode="&#x17d;" horiz-adv-x="590" 
d="M581 572l-289 -382h278v-196h-561v193l286 382l-259 -1v195l545 1v-192zM474 900l-89 -99h-140l-98 99h128l37 -51l37 52z" />
    <glyph glyph-name="a" unicode="a" horiz-adv-x="595" 
d="M403 0l-1 47q-27 -23 -67 -37t-82 -14q-66 0 -122 36.5t-89 98.5t-33 136q0 75 34 137t93.5 97.5t131.5 35.5q39 0 73.5 -13t55.5 -36v43h166l23 -531h-183zM337 177q24 16 38 42.5t14 56.5q0 41 -26.5 68.5t-66.5 27.5q-44 0 -77 -31t-33 -74q0 -26 14.5 -51t38 -40
t48.5 -15q26 0 50 16z" />
    <glyph glyph-name="aacute" unicode="&#xe1;" horiz-adv-x="595" 
d="M330 562l-140 14l90 128l156 -46zM403 0l-1 47q-27 -23 -67 -37t-82 -14q-66 0 -122 36.5t-89 98.5t-33 136q0 75 34 137t93.5 97.5t131.5 35.5q39 0 73.5 -13t55.5 -36v43h166l23 -531h-183zM337 177q24 16 38 42.5t14 56.5q0 41 -26.5 68.5t-66.5 27.5q-44 0 -77 -31
t-33 -74q0 -26 14.5 -51t38 -40t48.5 -15q26 0 50 16z" />
    <glyph glyph-name="acircumflex" unicode="&#xe2;" horiz-adv-x="595" 
d="M289 572h-128l98 99h140l89 -99l-125 -1l-37 52zM403 0l-1 47q-27 -23 -67 -37t-82 -14q-66 0 -122 36.5t-89 98.5t-33 136q0 75 34 137t93.5 97.5t131.5 35.5q39 0 73.5 -13t55.5 -36v43h166l23 -531h-183zM337 177q24 16 38 42.5t14 56.5q0 41 -26.5 68.5t-66.5 27.5
q-44 0 -77 -31t-33 -74q0 -26 14.5 -51t38 -40t48.5 -15q26 0 50 16z" />
    <glyph glyph-name="adieresis" unicode="&#xe4;" horiz-adv-x="595" 
d="M183 590.5q-19 20.5 -19 48.5q0 26 20 44.5t48 18.5q27 0 45.5 -18t18.5 -46t-19 -48t-45 -20q-30 0 -49 20.5zM356 590q-18 20 -18 49q0 26 20 44.5t48 18.5q27 0 45.5 -18t18.5 -46t-19 -48t-45 -20q-32 0 -50 20zM403 0l-1 47q-27 -23 -67 -37t-82 -14
q-66 0 -122 36.5t-89 98.5t-33 136q0 75 34 137t93.5 97.5t131.5 35.5q39 0 73.5 -13t55.5 -36v43h166l23 -531h-183zM337 177q24 16 38 42.5t14 56.5q0 41 -26.5 68.5t-66.5 27.5q-44 0 -77 -31t-33 -74q0 -26 14.5 -51t38 -40t48.5 -15q26 0 50 16z" />
    <glyph glyph-name="agrave" unicode="&#xe0;" horiz-adv-x="595" 
d="M240 578l-106 96l156 46l90 -128zM403 0l-1 47q-27 -23 -67 -37t-82 -14q-66 0 -122 36.5t-89 98.5t-33 136q0 75 34 137t93.5 97.5t131.5 35.5q39 0 73.5 -13t55.5 -36v43h166l23 -531h-183zM337 177q24 16 38 42.5t14 56.5q0 41 -26.5 68.5t-66.5 27.5q-44 0 -77 -31
t-33 -74q0 -26 14.5 -51t38 -40t48.5 -15q26 0 50 16z" />
    <glyph glyph-name="aring" unicode="&#xe5;" horiz-adv-x="595" 
d="M232 570.5q-32 17.5 -52 47.5t-20 65q0 33 19 64t51 50t69 19q36 0 67.5 -18t50.5 -48.5t19 -64.5q0 -36 -19.5 -66t-51.5 -48t-68 -18q-33 0 -65 17.5zM264 715.5q-13 -12.5 -13 -31.5t12.5 -31t32.5 -12t32.5 12t12.5 31t-12.5 31.5t-32.5 12.5q-19 0 -32 -12.5zM403 0
l-1 47q-27 -23 -67 -37t-82 -14q-66 0 -122 36.5t-89 98.5t-33 136q0 75 34 137t93.5 97.5t131.5 35.5q39 0 73.5 -13t55.5 -36v43h166l23 -531h-183zM337 177q24 16 38 42.5t14 56.5q0 41 -26.5 68.5t-66.5 27.5q-44 0 -77 -31t-33 -74q0 -26 14.5 -51t38 -40t48.5 -15
q26 0 50 16z" />
    <glyph glyph-name="atilde" unicode="&#xe3;" horiz-adv-x="595" 
d="M214 574l-111 11q7 76 43.5 110.5t84.5 34.5q18 0 36 -6t45 -18q3 -1 20.5 -8.5t29.5 -7.5q25 0 30 37l100 -11q-12 -68 -41 -107.5t-67 -39.5q-15 0 -32.5 6.5t-41.5 18.5q-15 8 -30.5 14t-25.5 6q-29 0 -40 -40zM403 0l-1 47q-27 -23 -67 -37t-82 -14q-66 0 -122 36.5
t-89 98.5t-33 136q0 75 34 137t93.5 97.5t131.5 35.5q39 0 73.5 -13t55.5 -36v43h166l23 -531h-183zM337 177q24 16 38 42.5t14 56.5q0 41 -26.5 68.5t-66.5 27.5q-44 0 -77 -31t-33 -74q0 -26 14.5 -51t38 -40t48.5 -15q26 0 50 16z" />
    <glyph glyph-name="ae" unicode="&#xe6;" horiz-adv-x="1015" 
d="M855 205l146 -31q-11 -50 -48.5 -91.5t-92 -65.5t-112.5 -24q-45 0 -87 15.5t-77 43.5l2 -52h-183l-1 47q-27 -23 -67 -37t-82 -14q-66 0 -122 36.5t-89 98.5t-33 136q0 75 34 137t93.5 97.5t131.5 35.5q39 0 73.5 -13t55.5 -36v43h166l2 -53q37 28 84 43.5t99 15.5
q122 0 190 -77t68 -209l-352 -29q15 -32 38 -52t51 -20q81 0 112 55zM646 344l169 11q-5 29 -25.5 43.5t-46.5 14.5q-75 0 -97 -69zM337 177q24 16 38 42.5t14 56.5q0 41 -26.5 68.5t-66.5 27.5q-44 0 -77 -31t-33 -74q0 -26 14.5 -51t38 -40t48.5 -15q26 0 50 16z" />
    <glyph glyph-name="b" unicode="b" horiz-adv-x="607" 
d="M485.5 503.5q50.5 -39.5 81.5 -102.5t31 -131q0 -74 -30 -138t-81 -101.5t-110 -37.5q-48 0 -95 17t-78 44v-56h-195v792l200 16l-2 -310q68 51 173 48q55 -1 105.5 -40.5zM364.5 178.5q24.5 15.5 39 40.5t14.5 52q0 43 -31.5 74.5t-72.5 31.5q-43 0 -75.5 -31.5
t-32.5 -73.5q0 -27 15.5 -52.5t40.5 -41t52 -15.5q26 0 50.5 15.5z" />
    <glyph glyph-name="c" unicode="c" horiz-adv-x="551" 
d="M146 31.5q-63 38.5 -100 103t-37 138.5t35.5 135.5t96 97.5t133.5 36q65 0 127.5 -30t101.5 -81t39 -110l-168 -15q-9 29 -32.5 46.5t-52.5 17.5q-40 0 -71.5 -29.5t-31.5 -67.5q0 -25 15 -49t39.5 -39t50.5 -15t49.5 15t33.5 38l166 -16q0 -55 -37.5 -104.5t-97.5 -79.5
t-123 -30q-73 0 -136 38.5z" />
    <glyph glyph-name="ccedilla" unicode="&#xe7;" horiz-adv-x="551" 
d="M340.5 185q23.5 15 33.5 38l166 -16q0 -51 -33 -97.5t-86.5 -78t-112.5 -37.5l-4 -16q38 3 63.5 -18t25.5 -56q0 -38 -23 -63t-61 -25q-37 0 -62.5 24t-21.5 59l56 2q2 -26 25 -28q11 0 18 7.5t7 19.5q0 13 -10 20t-29 7q-11 0 -62 -6l11 75q-64 10 -117 50t-84 100
t-31 127q0 74 35.5 135.5t96 97.5t133.5 36q65 0 127.5 -30t101.5 -81t39 -110l-168 -15q-9 29 -32.5 46.5t-52.5 17.5q-40 0 -71.5 -29.5t-31.5 -67.5q0 -25 15 -49t39.5 -39t50.5 -15t49.5 15z" />
    <glyph glyph-name="d" unicode="d" horiz-adv-x="607" 
d="M598 790v-792h-195v56q-31 -27 -78 -44t-95 -17q-59 0 -110 37.5t-81 101.5t-30 138q0 68 31 131t81.5 102.5t105.5 40.5q105 3 173 -48l-2 310zM345 178.5q25 15.5 40.5 41t15.5 52.5q0 42 -32.5 73.5t-75.5 31.5q-41 0 -72.5 -31.5t-31.5 -74.5q0 -27 14.5 -52
t39 -40.5t50.5 -15.5q27 0 52 15.5z" />
    <glyph glyph-name="eth" unicode="&#xf0;" horiz-adv-x="552" 
d="M500 455.5q43 -93.5 43 -189.5q0 -21 -1 -31v-1q0 -63 -36 -118t-96 -88t-130 -33t-132.5 35t-100.5 92.5t-38 121.5q0 61 34 113.5t92 84t127 32.5q-22 26 -36 40l-53 -42l-98 65l59 56q-40 26 -59 35l131 138q34 -21 66 -45l68 64l122 -86l-86 -67q81 -83 124 -176.5z
M342.5 185q29.5 23 29.5 55q0 35 -30.5 61.5t-70.5 26.5q-37 0 -63 -25.5t-26 -62.5q0 -33 26 -55.5t64 -22.5q41 0 70.5 23z" />
    <glyph glyph-name="e" unicode="e" horiz-adv-x="550" 
d="M472 464q69 -73 69 -199q0 -21 -1 -32l-354 -4q12 -33 33.5 -54.5t50.5 -23.5q80 -6 116 47l143 -41q-13 -47 -50 -84.5t-88.5 -58.5t-106.5 -21q-13 0 -20 1q-69 5 -127.5 45t-93 105t-34.5 142q0 15 1 23q4 66 40.5 118t96 81t131.5 29q125 0 194 -73zM187 351l169 -1
q-4 29 -23.5 45t-44.5 18q-74 6 -101 -62z" />
    <glyph glyph-name="eacute" unicode="&#xe9;" horiz-adv-x="550" 
d="M311 561l-140 14l90 128l156 -46zM472 464q69 -73 69 -199q0 -21 -1 -32l-354 -4q12 -33 33.5 -54.5t50.5 -23.5q80 -6 116 47l143 -41q-13 -47 -50 -84.5t-88.5 -58.5t-106.5 -21q-13 0 -20 1q-69 5 -127.5 45t-93 105t-34.5 142q0 15 1 23q4 66 40.5 118t96 81
t131.5 29q125 0 194 -73zM187 351l169 -1q-4 29 -23.5 45t-44.5 18q-74 6 -101 -62z" />
    <glyph glyph-name="ecircumflex" unicode="&#xea;" horiz-adv-x="550" 
d="M242 568h-128l98 99h140l89 -99l-125 -1l-37 52zM472 464q69 -73 69 -199q0 -21 -1 -32l-354 -4q12 -33 33.5 -54.5t50.5 -23.5q80 -6 116 47l143 -41q-13 -47 -50 -84.5t-88.5 -58.5t-106.5 -21q-13 0 -20 1q-69 5 -127.5 45t-93 105t-34.5 142q0 15 1 23q4 66 40.5 118
t96 81t131.5 29q125 0 194 -73zM187 351l169 -1q-4 29 -23.5 45t-44.5 18q-74 6 -101 -62z" />
    <glyph glyph-name="edieresis" unicode="&#xeb;" horiz-adv-x="550" 
d="M141 578.5q-19 20.5 -19 48.5q0 26 20 44.5t48 18.5q27 0 45.5 -18t18.5 -46t-19 -48t-45 -20q-30 0 -49 20.5zM314 578q-18 20 -18 49q0 26 20 44.5t48 18.5q27 0 45.5 -18t18.5 -46t-19 -48t-45 -20q-32 0 -50 20zM472 464q69 -73 69 -199q0 -21 -1 -32l-354 -4
q12 -33 33.5 -54.5t50.5 -23.5q80 -6 116 47l143 -41q-13 -47 -50 -84.5t-88.5 -58.5t-106.5 -21q-13 0 -20 1q-69 5 -127.5 45t-93 105t-34.5 142q0 15 1 23q4 66 40.5 118t96 81t131.5 29q125 0 194 -73zM187 351l169 -1q-4 29 -23.5 45t-44.5 18q-74 6 -101 -62z" />
    <glyph glyph-name="egrave" unicode="&#xe8;" horiz-adv-x="550" 
d="M218 568l-106 96l156 46l90 -128zM472 464q69 -73 69 -199q0 -21 -1 -32l-354 -4q12 -33 33.5 -54.5t50.5 -23.5q80 -6 116 47l143 -41q-13 -47 -50 -84.5t-88.5 -58.5t-106.5 -21q-13 0 -20 1q-69 5 -127.5 45t-93 105t-34.5 142q0 15 1 23q4 66 40.5 118t96 81
t131.5 29q125 0 194 -73zM187 351l169 -1q-4 29 -23.5 45t-44.5 18q-74 6 -101 -62z" />
    <glyph glyph-name="f" unicode="f" horiz-adv-x="527" 
d="M334.5 603.5q-13.5 -24.5 -16.5 -68.5l154 -2l-11 -180l-136 2l15 -353h-205l-4 356l-103 1l-19 180l120 -2l-1 69q-4 101 56.5 151t161.5 50q52 0 96.5 -15t75.5 -44l-7 -142q-3 2 -32 18.5t-71 16.5q-20 0 -35 -5q-25 -8 -38.5 -32.5z" />
    <glyph glyph-name="g" unicode="g" horiz-adv-x="604" 
d="M595 532l-6 -498q-1 -48 -22.5 -112t-81.5 -115.5t-165 -51.5q-89 0 -157.5 38.5t-107 108t-38.5 159.5l185 -61q1 -35 30.5 -55t68.5 -20q71 0 97.5 46.5t25.5 103.5v14q-34 -23 -81 -38t-87 -15q-67 0 -124 30.5t-90 84t-33 119.5q0 68 34.5 131t92.5 102t123 39
q49 0 94.5 -11.5t77.5 -31.5l1 33h163zM350 218q29 31 29 72q0 42 -28 70t-69 28q-40 0 -65.5 -28t-25.5 -72t25.5 -72.5t63.5 -28.5q41 0 70 31z" />
    <glyph glyph-name="h" unicode="h" horiz-adv-x="592" 
d="M398 0v280q0 42 -25 66t-68 24q-71 0 -98 -74l4 -295l-188 3l-14 802h190l5 -335q30 34 78 55t97 21q92 0 146.5 -67t55.5 -181l2 -299h-185z" />
    <glyph glyph-name="i" unicode="i" horiz-adv-x="249" 
d="M71.5 586.5q-27.5 15.5 -45 42.5t-17.5 58q0 48 36.5 80t87.5 32q48 0 77.5 -29t29.5 -77q0 -53 -32 -87.5t-80 -34.5q-29 0 -56.5 15.5zM19 533h209v-530h-193z" />
    <glyph glyph-name="dotlessi" unicode="&#x131;" horiz-adv-x="227" 
d="M9 533h209v-530h-193z" />
    <glyph glyph-name="iacute" unicode="&#xed;" horiz-adv-x="227" 
d="M44 564l44 86l96 -39l-60 -54zM9 533h209v-530h-193z" />
    <glyph glyph-name="icircumflex" unicode="&#xee;" horiz-adv-x="227" 
d="M97 555h-88l65 111h96l58 -110l-86 -2l-23 56zM9 533h209v-530h-193z" />
    <glyph glyph-name="idieresis" unicode="&#xef;" horiz-adv-x="227" 
d="M26 565q-14 15 -14 37t14 35.5t36 13.5q21 0 33 -13t12 -35q0 -23 -13 -38t-33 -15q-21 0 -35 15zM134.5 564.5q-13.5 14.5 -13.5 35.5q0 23 13 37t35 14t34.5 -13t12.5 -35q0 -23 -14 -38t-34 -15t-33.5 14.5zM9 533h209v-530h-193z" />
    <glyph glyph-name="igrave" unicode="&#xec;" horiz-adv-x="227" 
d="M26 612l106 46l65 -88l-90 -14zM9 533h209v-530h-193z" />
    <glyph glyph-name="j" unicode="j" horiz-adv-x="409" 
d="M215 614.5q-32 33.5 -32 82.5q0 48 31 78t82 30q48 0 76 -27.5t28 -75.5q0 -50 -31 -85.5t-78 -35.5q-44 0 -76 33.5zM9 -207l62 171q15 -13 35 -13q5 0 17 2q31 7 45.5 35.5t18 67.5t4.5 110v29l2 341l199 6l2 -382q1 -134 -20.5 -222.5t-75 -135.5t-147.5 -47
q-89 0 -142 38z" />
    <glyph glyph-name="k" unicode="k" horiz-adv-x="574" 
d="M348 -10l-151 221l-1 -209l-187 -2v806l189 10l-1 -457l120 184l202 -13l-154 -240l200 -290z" />
    <glyph glyph-name="l" unicode="l" horiz-adv-x="361" 
d="M211 -8q-91 0 -147 59t-55 166l2 492l189 56l1 -492q0 -41 22 -60.5t51 -19.5q21 0 34 9l44 -177q-75 -33 -141 -33z" />
    <glyph glyph-name="lslash" unicode="&#x142;" horiz-adv-x="416" 
d="M408 25q-75 -33 -141 -33q-91 0 -147 59t-55 166v70l-56 -25v186l57 26l1 235l189 56v-205l73 33v-188l-72 -32v-100q0 -41 22 -60.5t51 -19.5q21 0 34 9z" />
    <glyph glyph-name="m" unicode="m" horiz-adv-x="828" 
d="M819 0h-194l-1 278q0 55 -12.5 76t-45.5 21q-25 0 -40.5 -30.5t-15.5 -77.5l1 -19l-1 3v-248l-188 -2l-2 277q0 46 -17 71.5t-48 25.5q-32 0 -49 -27t-17 -77l1 -21l-1 2l8 -253h-188v527l172 6l1 -40q26 20 63.5 31t81.5 11q92 0 139 -47q25 28 66 40t107 12
q93 0 135.5 -73.5t43.5 -237.5z" />
    <glyph glyph-name="n" unicode="n" horiz-adv-x="544" 
d="M494 492.5q43 -49.5 41 -139.5l-6 -353h-183l1 235q0 73 -19.5 104t-57.5 31q-31 0 -53.5 -18t-27.5 -61l1 -291h-181v533l179 3v-51q38 25 89 41t100 16q74 0 117 -49.5z" />
    <glyph glyph-name="ntilde" unicode="&#xf1;" horiz-adv-x="544" 
d="M189 583l-111 11q7 76 43.5 110.5t84.5 34.5q18 0 36 -6t45 -18q3 -1 20.5 -8.5t29.5 -7.5q25 0 30 37l100 -11q-12 -68 -41 -107.5t-67 -39.5q-15 0 -32.5 6.5t-41.5 18.5q-15 8 -30.5 14t-25.5 6q-29 0 -40 -40zM494 492.5q43 -49.5 41 -139.5l-6 -353h-183l1 235
q0 73 -19.5 104t-57.5 31q-31 0 -53.5 -18t-27.5 -61l1 -291h-181v533l179 3v-51q38 25 89 41t100 16q74 0 117 -49.5z" />
    <glyph glyph-name="o" unicode="o" horiz-adv-x="582" 
d="M149 35q-65 39 -102.5 104.5t-37.5 139.5q0 82 42.5 142t107 91t130.5 31q86 0 150 -32.5t99 -92.5t35 -140q0 -79 -37 -143.5t-101.5 -101.5t-142.5 -37t-143 39zM367.5 193q27.5 27 27.5 74q0 45 -26 76t-77 31q-45 0 -74.5 -30t-29.5 -74q0 -45 31 -74.5t79 -29.5
q42 0 69.5 27z" />
    <glyph glyph-name="oacute" unicode="&#xf3;" horiz-adv-x="582" 
d="M194 578l90 128l156 -46l-106 -96zM149 35q-65 39 -102.5 104.5t-37.5 139.5q0 82 42.5 142t107 91t130.5 31q86 0 150 -32.5t99 -92.5t35 -140q0 -79 -37 -143.5t-101.5 -101.5t-142.5 -37t-143 39zM367.5 193q27.5 27 27.5 74q0 45 -26 76t-77 31q-45 0 -74.5 -30
t-29.5 -74q0 -45 31 -74.5t79 -29.5q42 0 69.5 27z" />
    <glyph glyph-name="ocircumflex" unicode="&#xf4;" horiz-adv-x="582" 
d="M258 579h-128l98 99h140l89 -99l-125 -1l-37 52zM439 510.5q64 -32.5 99 -92.5t35 -140q0 -79 -37 -143.5t-101.5 -101.5t-142.5 -37t-143 39t-102.5 104.5t-37.5 139.5q0 82 42.5 142t107 91t130.5 31q86 0 150 -32.5zM367.5 193q27.5 27 27.5 74q0 45 -26 76t-77 31
q-45 0 -74.5 -30t-29.5 -74q0 -45 31 -74.5t79 -29.5q42 0 69.5 27z" />
    <glyph glyph-name="odieresis" unicode="&#xf6;" horiz-adv-x="582" 
d="M157 580.5q-19 20.5 -19 48.5q0 26 20 44.5t48 18.5q27 0 45.5 -18t18.5 -46t-19 -48t-45 -20q-30 0 -49 20.5zM330 580q-18 20 -18 49q0 26 20 44.5t48 18.5q27 0 45.5 -18t18.5 -46t-19 -48t-45 -20q-32 0 -50 20zM149 35q-65 39 -102.5 104.5t-37.5 139.5
q0 82 42.5 142t107 91t130.5 31q86 0 150 -32.5t99 -92.5t35 -140q0 -79 -37 -143.5t-101.5 -101.5t-142.5 -37t-143 39zM367.5 193q27.5 27 27.5 74q0 45 -26 76t-77 31q-45 0 -74.5 -30t-29.5 -74q0 -45 31 -74.5t79 -29.5q42 0 69.5 27z" />
    <glyph glyph-name="ograve" unicode="&#xf2;" horiz-adv-x="582" 
d="M118 663l156 46l90 -128l-140 -14zM149 35q-65 39 -102.5 104.5t-37.5 139.5q0 82 42.5 142t107 91t130.5 31q86 0 150 -32.5t99 -92.5t35 -140q0 -79 -37 -143.5t-101.5 -101.5t-142.5 -37t-143 39zM367.5 193q27.5 27 27.5 74q0 45 -26 76t-77 31q-45 0 -74.5 -30
t-29.5 -74q0 -45 31 -74.5t79 -29.5q42 0 69.5 27z" />
    <glyph glyph-name="oslash" unicode="&#xf8;" horiz-adv-x="621" 
d="M170 32l-49 -42l-112 131l44 37q-28 56 -28 114q0 68 39 129.5t104 99t138 37.5q76 0 144 -41l50 43l112 -131l-46 -40q23 -49 23 -101q0 -71 -39.5 -135t-104.5 -103t-136 -39q-73 0 -139 41zM370 170.5q25 16.5 39.5 42.5t14.5 54t-14.5 53t-39.5 40.5t-55 15.5
t-57 -15.5t-43.5 -40.5t-16.5 -53t16 -54t43 -42.5t58 -16.5q30 0 55 16.5z" />
    <glyph glyph-name="otilde" unicode="&#xf5;" horiz-adv-x="582" 
d="M345.5 572.5q-17.5 6.5 -41.5 18.5q-15 8 -30.5 14t-25.5 6q-29 0 -40 -40l-111 11q7 76 43.5 110.5t84.5 34.5q18 0 36 -6t45 -18q3 -1 20.5 -8.5t29.5 -7.5q25 0 30 37l100 -11q-12 -68 -41 -107.5t-67 -39.5q-15 0 -32.5 6.5zM149 35q-65 39 -102.5 104.5t-37.5 139.5
q0 82 42.5 142t107 91t130.5 31q86 0 150 -32.5t99 -92.5t35 -140q0 -79 -37 -143.5t-101.5 -101.5t-142.5 -37t-143 39zM367.5 193q27.5 27 27.5 74q0 45 -26 76t-77 31q-45 0 -74.5 -30t-29.5 -74q0 -45 31 -74.5t79 -29.5q42 0 69.5 27z" />
    <glyph glyph-name="oe" unicode="&#x153;" horiz-adv-x="941" 
d="M862.5 464q69.5 -73 69.5 -199q0 -21 -1 -32l-354 -4q12 -33 33.5 -54.5t50.5 -23.5q80 -6 116 47l143 -41q-13 -47 -50 -84.5t-88.5 -58.5t-106.5 -21q-53 0 -101.5 20.5t-86.5 58.5q-38 -36 -88 -56t-107 -20q-78 0 -143 39t-102.5 104.5t-37.5 139.5q0 82 42.5 142
t107 91t130.5 31q61 0 112 -17t88 -49q35 29 81 44.5t97 15.5q126 0 195.5 -73zM578 351l169 -1q-4 29 -23.5 45t-44.5 18q-74 6 -101 -62zM367.5 193q27.5 27 27.5 74q0 45 -26 76t-77 31q-45 0 -74.5 -30t-29.5 -74q0 -45 31 -74.5t79 -29.5q42 0 69.5 27z" />
    <glyph glyph-name="p" unicode="p" horiz-adv-x="560" 
d="M496 469.5q55 -70.5 55 -179.5q0 -77 -28.5 -141.5t-80.5 -102t-121 -37.5q-74 0 -123 27l9 -275h-198v773l163 -1l7 -53q35 29 82 47t86 17q94 -4 149 -74.5zM365.5 198q24.5 26 24.5 71q0 47 -27 75.5t-71 28.5q-43 0 -71.5 -27t-28.5 -68q0 -43 32.5 -74.5t76.5 -31.5
q40 0 64.5 26z" />
    <glyph glyph-name="thorn" unicode="&#xfe;" horiz-adv-x="574" 
d="M510 469.5q55 -70.5 55 -179.5q0 -77 -28.5 -141.5t-80.5 -102t-121 -37.5q-74 0 -123 27l9 -294h-198l-14 1065l178 -1l10 -322q35 28 80.5 44.5t83.5 15.5q94 -4 149 -74.5zM379.5 198q24.5 26 24.5 71q0 47 -27 75.5t-71 28.5q-43 0 -71.5 -27t-28.5 -68
q0 -43 32.5 -74.5t76.5 -31.5q40 0 64.5 26z" />
    <glyph glyph-name="q" unicode="q" horiz-adv-x="594" 
d="M585 537v-776h-193l9 289q-32 -23 -76.5 -37t-97.5 -14q-56 0 -106 37.5t-81 100t-31 132.5q0 75 34.5 137t95 98.5t133.5 36.5q41 0 80 -16.5t70 -47.5l10 53zM364.5 193.5q32.5 32.5 32.5 76.5q0 42 -29 69.5t-73 27.5q-28 0 -51 -17t-35.5 -42.5t-12.5 -46.5
q0 -45 24.5 -72.5t65.5 -27.5q46 0 78.5 32.5z" />
    <glyph glyph-name="r" unicode="r" horiz-adv-x="463" 
d="M394 520.5q34 -17.5 60 -49.5l-69 -155q-29 40 -79 40q-54 0 -80.5 -38.5t-30.5 -125.5v-192h-186v533h186v-46q27 24 61.5 37.5t68.5 13.5q35 0 69 -17.5z" />
    <glyph glyph-name="s" unicode="s" horiz-adv-x="486" 
d="M407 349q-45 25 -80 36.5t-67 11.5q-30 0 -49.5 -9t-19.5 -23q0 -25 70 -25q102 0 159 -40t57 -111q0 -54 -33.5 -99.5t-90 -72.5t-123.5 -27q-66 0 -126 24.5t-95 65.5l101 114q24 -21 55 -32.5t63 -11.5q31 0 52.5 10.5t21.5 25.5q0 12 -14 17t-47 5q-6 -1 -18 -1
q-50 0 -94.5 22.5t-71.5 60.5t-27 82q0 46 31 86t83 64.5t110 24.5t116.5 -23t106.5 -64z" />
    <glyph glyph-name="scaron" unicode="&#x161;" horiz-adv-x="486" 
d="M407 349q-45 25 -80 36.5t-67 11.5q-30 0 -49.5 -9t-19.5 -23q0 -25 70 -25q102 0 159 -40t57 -111q0 -54 -33.5 -99.5t-90 -72.5t-123.5 -27q-66 0 -126 24.5t-95 65.5l101 114q24 -21 55 -32.5t63 -11.5q31 0 52.5 10.5t21.5 25.5q0 12 -14 17t-47 5q-6 -1 -18 -1
q-50 0 -94.5 22.5t-71.5 60.5t-27 82q0 46 31 86t83 64.5t110 24.5t116.5 -23t106.5 -64zM429 677l-89 -99h-140l-98 99h128l37 -51l37 52z" />
    <glyph glyph-name="germandbls" unicode="&#xdf;" horiz-adv-x="564" 
d="M9 725q105 39 203 39q86 0 153.5 -29.5t105 -80.5t37.5 -113q0 -51 -24 -91.5t-60 -54.5q57 -11 94 -58.5t37 -122.5q0 -55 -26 -106t-76 -82.5t-118 -31.5q-52 0 -105 18l7 154q24 -7 47 -7q43 0 69.5 23t26.5 54q0 38 -30.5 62.5t-95.5 24.5l-5 113q48 0 76.5 25
t28.5 63q0 39 -32 60t-74 21t-65 -21v-585h-174v726z" />
    <glyph glyph-name="t" unicode="t" horiz-adv-x="462" 
d="M453 84q-33 -49 -80.5 -72.5t-115.5 -23.5q-91 0 -136 46.5t-45 149.5q0 29 5 76l14 115h-79l-7 158l106 2l14 117l178 9l-14 -124l112 2l19 -163h-150l-10 -90q-2 -18 -2 -26q0 -40 15 -63t40 -23t44 11t42 39z" />
    <glyph glyph-name="u" unicode="u" horiz-adv-x="561" 
d="M552 534v-529h-190v49q-25 -29 -64 -45.5t-84 -16.5q-103 0 -155 68.5t-50 200.5l3 275h185l-1 -265q0 -42 20.5 -64.5t58.5 -22.5q41 0 64.5 32.5t23.5 82.5v-1l1 236h188z" />
    <glyph glyph-name="uacute" unicode="&#xfa;" horiz-adv-x="561" 
d="M338 574l-140 14l90 128l156 -46zM552 534v-529h-190v49q-25 -29 -64 -45.5t-84 -16.5q-103 0 -155 68.5t-50 200.5l3 275h185l-1 -265q0 -42 20.5 -64.5t58.5 -22.5q41 0 64.5 32.5t23.5 82.5v-1l1 236h188z" />
    <glyph glyph-name="ucircumflex" unicode="&#xfb;" horiz-adv-x="561" 
d="M253 573h-107l82 80h117l75 -80l-105 -1l-31 42zM552 534v-529h-190v49q-25 -29 -64 -45.5t-84 -16.5q-103 0 -155 68.5t-50 200.5l3 275h185l-1 -265q0 -42 20.5 -64.5t58.5 -22.5q41 0 64.5 32.5t23.5 82.5v-1l1 236h188z" />
    <glyph glyph-name="udieresis" unicode="&#xfc;" horiz-adv-x="561" 
d="M146 581.5q-19 20.5 -19 48.5q0 26 20 44.5t48 18.5q27 0 45.5 -18t18.5 -46t-19 -48t-45 -20q-30 0 -49 20.5zM319 581q-18 20 -18 49q0 26 20 44.5t48 18.5q27 0 45.5 -18t18.5 -46t-19 -48t-45 -20q-32 0 -50 20zM552 534v-529h-190v49q-25 -29 -64 -45.5t-84 -16.5
q-103 0 -155 68.5t-50 200.5l3 275h185l-1 -265q0 -42 20.5 -64.5t58.5 -22.5q41 0 64.5 32.5t23.5 82.5v-1l1 236h188z" />
    <glyph glyph-name="ugrave" unicode="&#xf9;" horiz-adv-x="561" 
d="M234 580l-106 96l156 46l90 -128zM552 534v-529h-190v49q-25 -29 -64 -45.5t-84 -16.5q-103 0 -155 68.5t-50 200.5l3 275h185l-1 -265q0 -42 20.5 -64.5t58.5 -22.5q41 0 64.5 32.5t23.5 82.5v-1l1 236h188z" />
    <glyph glyph-name="v" unicode="v" horiz-adv-x="519" 
d="M510 533l-144 -533h-243l-114 534h192l54 -305l62 304h193z" />
    <glyph glyph-name="w" unicode="w" horiz-adv-x="840" 
d="M831 536l-136 -536h-187l-81 275l-95 -275h-217l-106 532l204 6l49 -224l89 219l165 1l75 -223l38 225h202z" />
    <glyph glyph-name="x" unicode="x" horiz-adv-x="587" 
d="M403 261l173 -247l-207 -14l-70 102l-67 -102l-223 2l181 261l-172 253l193 20l85 -121l82 118l200 -7z" />
    <glyph glyph-name="y" unicode="y" horiz-adv-x="615" 
d="M595 545l-140 -523q-37 -128 -108.5 -197.5t-166.5 -69.5q-40 0 -85.5 12t-85.5 32l45 187q19 -16 57 -28t63 -12q45 0 69 38l-223 545l196 5l102 -296l77 298z" />
    <glyph glyph-name="yacute" unicode="&#xfd;" horiz-adv-x="615" 
d="M350 577l-140 14l90 128l156 -46zM595 545l-140 -523q-37 -128 -108.5 -197.5t-166.5 -69.5q-40 0 -85.5 12t-85.5 32l45 187q19 -16 57 -28t63 -12q45 0 69 38l-223 545l196 5l102 -296l77 298z" />
    <glyph glyph-name="ydieresis" unicode="&#xff;" horiz-adv-x="615" 
d="M174 598.5q-19 20.5 -19 48.5q0 26 20 44.5t48 18.5q27 0 45.5 -18t18.5 -46t-19 -48t-45 -20q-30 0 -49 20.5zM347 598q-18 20 -18 49q0 26 20 44.5t48 18.5q27 0 45.5 -18t18.5 -46t-19 -48t-45 -20q-32 0 -50 20zM595 545l-140 -523q-37 -128 -108.5 -197.5
t-166.5 -69.5q-40 0 -85.5 12t-85.5 32l45 187q19 -16 57 -28t63 -12q45 0 69 38l-223 545l196 5l102 -296l77 298z" />
    <glyph glyph-name="z" unicode="z" horiz-adv-x="487" 
d="M478 0h-463l-5 142l198 240h-183v154h426l18 -154l-184 -226l181 9z" />
    <glyph glyph-name="zcaron" unicode="&#x17e;" horiz-adv-x="487" 
d="M478 0h-463l-5 142l198 240h-183v154h426l18 -154l-184 -226l181 9zM403 669l-89 -99h-140l-98 99h128l37 -51l37 52z" />
    <glyph glyph-name="zero" unicode="0" horiz-adv-x="694" 
d="M184.5 46.5q-79.5 53.5 -127.5 142.5t-48 191q0 99 48 188.5t127.5 143.5t169.5 54q88 0 164.5 -53t121.5 -142t45 -191q0 -106 -44.5 -195t-120.5 -140.5t-166 -51.5t-169.5 53.5zM438.5 259.5q31.5 44.5 31.5 120.5q0 85 -31.5 134t-84.5 49q-38 0 -68 -23.5
t-46.5 -65.5t-16.5 -94q0 -76 35 -120.5t96 -44.5q53 0 84.5 44.5z" />
    <glyph glyph-name="one" unicode="1" horiz-adv-x="378" 
d="M227 760l142 -15v-744h-219v550h-141v209h218z" />
    <glyph glyph-name="two" unicode="2" horiz-adv-x="609" 
d="M600 0l-570 -1l-17 172q70 31 149 88.5t133 121.5t54 114q0 30 -18 54t-45 24q-33 0 -58 -32.5t-29 -73.5l-183 32q4 76 40.5 136.5t99 95.5t140.5 35q77 0 135 -34t89.5 -95t31.5 -138q0 -153 -166 -322l193 3z" />
    <glyph glyph-name="three" unicode="3" horiz-adv-x="578" 
d="M489.5 447q36.5 -38 58 -89t21.5 -105q0 -74 -40 -133.5t-111.5 -93t-160.5 -33.5q-86 0 -146 33t-102 104l104 149q27 -44 62.5 -67t76.5 -23q43 0 70 25.5t27 65.5q0 37 -25 63t-61 26q-26 0 -47.5 -7t-47.5 -24l-51 131l146 120l-235 -3v173l513 1l4 -167l-136 -92
q44 -16 80.5 -54z" />
    <glyph glyph-name="four" unicode="4" horiz-adv-x="581" 
d="M572 181l-108 3l-1 -178l-198 -6l5 188l-251 6l-10 561l184 12v-389l81 -5l5 181l186 55l-1 -247l108 -6v-175z" />
    <glyph glyph-name="five" unicode="5" horiz-adv-x="536" 
d="M392 484q60 -27 97.5 -82t37.5 -136q0 -73 -36 -134t-98.5 -96.5t-137.5 -35.5t-140.5 37.5t-114.5 108.5l144 93q13 -26 38.5 -41.5t55.5 -15.5q38 0 65.5 24.5t27.5 59.5q0 34 -27 56.5t-68 22.5q-31 0 -54 -11.5t-32 -30.5l-130 56l9 396h460v-168h-281l3 -80
q23 4 53 4q68 0 128 -27z" />
    <glyph glyph-name="six" unicode="6" horiz-adv-x="557" 
d="M436.5 457q53.5 -34 82.5 -88.5t29 -121.5q0 -73 -33 -130t-92 -89.5t-134 -32.5q-80 0 -143 37.5t-98 98.5t-38 130q-1 9 -1 26q0 114 76.5 234.5t265.5 239.5l131 -138q-37 -16 -82.5 -49.5t-86.5 -75.5q70 -7 123.5 -41zM345 184q26 27 26 64t-26 63.5t-67 26.5
q-36 0 -64.5 -20t-30.5 -59v-7q1 -43 32 -69t68 -26q36 0 62 27z" />
    <glyph glyph-name="seven" unicode="7" horiz-adv-x="564" 
d="M555 584q-54 -64 -97 -133t-86 -154q-48 -95 -116 -299h-235q53 171 110 295q87 194 151 282l-273 -8v193h541z" />
    <glyph glyph-name="eight" unicode="8" horiz-adv-x="541" 
d="M495.5 328.5q36.5 -49.5 36.5 -108.5q0 -66 -31.5 -118.5t-88.5 -81.5t-130 -29q-74 0 -136.5 29.5t-99.5 79t-37 107.5q0 56 34.5 105.5t98.5 84.5q-65 33 -94.5 71.5t-29.5 88.5q0 57 34 105.5t92 77.5t126 29q67 0 122.5 -28.5t88 -77.5t32.5 -107q0 -53 -24.5 -92
t-84.5 -67q55 -19 91.5 -68.5zM216.5 597q-20.5 -19 -20.5 -45t22.5 -49t61.5 -36q24 16 39 39t15 45q0 26 -20.5 45.5t-48.5 19.5t-48.5 -19zM332 168q24 23 24 54q0 30 -23.5 53.5t-62.5 34.5q-47 -18 -58.5 -44.5t-11.5 -46.5q1 -31 24 -52.5t53 -21.5q31 0 55 23z" />
    <glyph glyph-name="nine" unicode="9" horiz-adv-x="552" 
d="M543 496q0 -135 -84.5 -266t-252.5 -235l-131 138q45 22 97.5 65t89.5 89q-73 1 -131 34t-90 85.5t-32 110.5q0 64 38 121.5t100.5 92.5t132.5 35q65 0 125.5 -31t98.5 -85.5t38 -122.5v-1q1 -10 1 -30zM210.5 460q21.5 -27 62.5 -27q39 0 61.5 25t22.5 60q0 39 -26.5 60
t-60.5 21q-33 0 -57 -21t-24 -57q0 -34 21.5 -61z" />
    <glyph glyph-name="asterisk" unicode="*" horiz-adv-x="288" 
d="M144 617l-53 -78l-59 41l47 72l-70 36l32 70l65 -32l3 71l73 5l2 -76l61 25l34 -70l-70 -29l45 -80l-64 -36z" />
    <glyph glyph-name="backslash" unicode="\" horiz-adv-x="518" 
d="M9 745l187 35l313 -748l-178 -57z" />
    <glyph glyph-name="bullet" unicode="&#x2022;" horiz-adv-x="317" 
d="M82.5 138.5q-33.5 19.5 -53.5 53t-20 72.5q0 40 20.5 73.5t55.5 53.5t78 20q40 0 73.5 -19t52.5 -52t19 -72q0 -40 -21 -74.5t-56.5 -54.5t-75.5 -20q-39 0 -72.5 19.5z" />
    <glyph glyph-name="colon" unicode=":" horiz-adv-x="236" 
d="M63 433.5q-25 15.5 -40.5 41.5t-15.5 58q0 48 33 82.5t80 34.5q43 0 75 -32t32 -80q0 -29 -15 -57t-40.5 -45.5t-55.5 -17.5q-28 0 -53 15.5zM63 9.5q-25 15.5 -40.5 41.5t-15.5 58q0 48 33 82.5t80 34.5q43 0 75 -32t32 -80q0 -29 -15 -57t-40.5 -45.5t-55.5 -17.5
q-28 0 -53 15.5z" />
    <glyph glyph-name="comma" unicode="," horiz-adv-x="312" 
d="M9 -101l103 318l191 -72l-147 -271z" />
    <glyph glyph-name="ellipsis" unicode="&#x2026;" horiz-adv-x="706" 
d="M273 31q-32 35 -32 82q0 32 16.5 58.5t43 41.5t56.5 15q43 0 73.5 -30t30.5 -81t-30.5 -86t-77.5 -35q-48 0 -80 35zM507 31q-32 35 -32 82q0 32 16.5 58.5t43 41.5t56.5 15q43 0 73.5 -30t30.5 -81t-30.5 -86t-77.5 -35q-48 0 -80 35zM39 31q-32 35 -32 82
q0 32 16.5 58.5t43 41.5t56.5 15q43 0 73.5 -30t30.5 -81t-30.5 -86t-77.5 -35q-48 0 -80 35z" />
    <glyph glyph-name="exclam" unicode="!" horiz-adv-x="251" 
d="M15 760h219l-4 -498l-197 -8zM68.5 12.5q-27.5 16.5 -43.5 44t-16 59.5q0 49 34.5 80.5t88.5 31.5q50 0 80 -28.5t30 -77.5q0 -53 -33.5 -89.5t-81.5 -36.5q-31 0 -58.5 16.5z" />
    <glyph glyph-name="exclamdown" unicode="&#xa1;" horiz-adv-x="251" 
d="M208.5 499.5q33.5 -36.5 33.5 -89.5q0 -49 -30 -77.5t-80 -28.5q-54 0 -88.5 31.5t-34.5 80.5q0 32 16 59.5t43.5 44t58.5 16.5q48 0 81.5 -36.5zM230 270l4 -498h-219l18 506z" />
    <glyph glyph-name="numbersign" unicode="#" horiz-adv-x="798" 
d="M643 123v-123l-174 2l-4 121h-126l3 -127l-211 -2l-1 129h-97l-23 193l118 1l-1 142l-107 1l-11 180h116l-1 100l198 19l3 -119h124l-3 104l199 15v-119h97l22 -187l-120 1v-134l122 1l23 -198h-146zM459 319l-4 137l-125 1l4 -139z" />
    <glyph glyph-name="period" unicode="." horiz-adv-x="236" 
d="M39 31q-32 35 -32 82q0 32 16.5 58.5t43 41.5t56.5 15q43 0 73.5 -30t30.5 -81t-30.5 -86t-77.5 -35q-48 0 -80 35z" />
    <glyph glyph-name="question" unicode="?" horiz-adv-x="515" 
d="M298 237l-158 13v199q40 -12 71 -12q48 0 76.5 22t28.5 58q0 34 -22 55.5t-55 21.5q-35 0 -60.5 -24.5t-27.5 -60.5l-132 54q5 56 39 102.5t86.5 73.5t111.5 27q75 0 132 -34t87.5 -95t30.5 -138q0 -51 -30.5 -98.5t-79 -76.5t-100.5 -29zM140 31q-32 35 -32 82
q0 32 16.5 58.5t43 41.5t56.5 15q43 0 73.5 -30t30.5 -81t-30.5 -86t-77.5 -35q-48 0 -80 35z" />
    <glyph glyph-name="questiondown" unicode="&#xbf;" horiz-adv-x="505" 
d="M365 505q32 -35 32 -82q0 -32 -16.5 -58.5t-43 -41.5t-56.5 -15q-43 0 -73.5 30t-30.5 81t30.5 86t77.5 35q48 0 80 -35zM207 299l158 -13v-199q-40 12 -71 12q-48 0 -76.5 -22t-28.5 -58q0 -34 22 -55.5t55 -21.5q35 0 60.5 24.5t27.5 60.5l132 -54q-5 -56 -39 -102.5
t-86.5 -73.5t-111.5 -27q-75 0 -132 34t-87.5 95t-30.5 138q0 51 30.5 98.5t79 76.5t100.5 29z" />
    <glyph glyph-name="quotedbl" unicode="&#x22;" horiz-adv-x="367" 
d="M9 791l164 15v-288h-129zM196 518v259l162 24l-41 -301z" />
    <glyph glyph-name="quotesingle" unicode="'" horiz-adv-x="189" 
d="M9 809l171 12v-277h-136z" />
    <glyph glyph-name="semicolon" unicode=";" horiz-adv-x="253" 
d="M79 433.5q-25 15.5 -40 42t-15 57.5q0 48 32.5 82.5t79.5 34.5q45 0 76.5 -32.5t31.5 -79.5q0 -30 -15 -57.5t-40.5 -45t-55.5 -17.5q-29 0 -54 15.5zM9 -49l82 271l153 -75l-117 -216z" />
    <glyph glyph-name="slash" unicode="/" horiz-adv-x="531" 
d="M4 0l318 761h200l-317 -761h-201z" />
    <glyph glyph-name="underscore" unicode="_" horiz-adv-x="576" 
d="M18 -2h549l-12 -137h-546z" />
    <glyph glyph-name="braceleft" unicode="{" horiz-adv-x="384" 
d="M154.5 -116.5q-38.5 30.5 -50 81.5t-12.5 140q-1 43 -5 67t-23 41t-60 17v180q35 2 53 10.5t26 28t8 56.5l-2 111q0 89 54 138.5t160 49.5q44 0 75 -5l-21 -149q-17 3 -31 3q-42 0 -68.5 -23.5t-26.5 -59.5l1 -52l2 -63q0 -36 -15.5 -71t-47.5 -60q73 -47 73 -163l-1 -34
q-1 -10 -1 -33q0 -42 19.5 -66t66.5 -24q20 0 31 2l21 -146l-35 -3q-42 -4 -72 -4q-80 0 -118.5 30.5z" />
    <glyph glyph-name="braceright" unicode="}" horiz-adv-x="384" 
d="M39 -143l-35 3l21 146q11 -2 31 -2q47 0 66.5 24t19.5 66q0 23 -1 33l-1 34q0 116 73 163q-32 25 -47.5 60t-15.5 71l2 63l1 52q0 36 -26.5 59.5t-68.5 23.5q-15 0 -31 -3l-21 149q31 5 75 5q106 0 160 -49.5t54 -138.5l-2 -111q0 -37 8 -56.5t26 -28t53 -10.5v-180
q-41 0 -60 -17t-23 -41t-5 -67q-1 -89 -12.5 -140t-50 -81.5t-118.5 -30.5q-30 0 -72 4z" />
    <glyph glyph-name="bracketleft" unicode="[" horiz-adv-x="370" 
d="M361 -195l-352 1l11 1000h321l11 -168h-145l-11 -642l153 -5z" />
    <glyph glyph-name="bracketright" unicode="]" horiz-adv-x="370" 
d="M174 -4l-11 642h-145l11 168h321l11 -1000l-352 -1l12 186z" />
    <glyph glyph-name="parenleft" unicode="(" horiz-adv-x="338" 
d="M51.5 109q-42.5 128 -42.5 261q0 120 44.5 242t125.5 194l139 -86q-68 -74 -99 -156.5t-31 -197.5q0 -103 33.5 -194.5t107.5 -173.5l-157 -97q-78 80 -120.5 208z" />
    <glyph glyph-name="parenright" unicode=")" horiz-adv-x="338" 
d="M9 -2q74 82 107.5 173.5t33.5 194.5q0 115 -31 197.5t-99 156.5l139 86q81 -72 125.5 -194t44.5 -242q0 -133 -42.5 -261t-120.5 -208z" />
    <glyph glyph-name="hyphen" unicode="-" horiz-adv-x="393" 
d="M9 389l372 2l3 -197l-367 -3z" />
    <glyph glyph-name="guillemotleft" unicode="&#xab;" horiz-adv-x="356" 
d="M19 198l-10 79l128 157l49 -98l-69 -96l69 -92l-39 -98zM179 196l-9 78l127 158l50 -99l-69 -91l69 -95l-40 -98z" />
    <glyph glyph-name="guillemotright" unicode="&#xbb;" horiz-adv-x="353" 
d="M177 208l-128 -147l-40 98l85 94l-85 92l50 99l127 -158zM344 287l-10 -79l-128 -148l-39 98l81 96l-81 92l49 98z" />
    <glyph glyph-name="guilsinglleft" unicode="&#x2039;" horiz-adv-x="195" 
d="M19 198l-10 79l128 157l49 -98l-69 -89l69 -99l-39 -98z" />
    <glyph glyph-name="guilsinglright" unicode="&#x203a;" horiz-adv-x="195" 
d="M9 159l69 99l-69 87l50 99l127 -158l-9 -78l-128 -147z" />
    <glyph glyph-name="uni000D" unicode="&#xd;" horiz-adv-x="36" 
 />
    <glyph glyph-name="cent" unicode="&#xa2;" horiz-adv-x="556" 
d="M340.5 185q23.5 15 33.5 38l166 -16q0 -57 -40 -108t-103 -80l9 -102l-211 16l-5 77q-80 30 -130.5 102.5t-50.5 160.5q0 83 44.5 150t116.5 98l-6 88l206 9v-93q73 -26 122.5 -81.5t49.5 -122.5l-168 -15q-9 29 -32.5 46.5t-52.5 17.5q-40 0 -71.5 -29.5t-31.5 -67.5
q0 -25 15 -49t39.5 -39t50.5 -15t49.5 15z" />
    <glyph glyph-name="currency" unicode="&#xa4;" horiz-adv-x="632" 
d="M565 131l51 -58l-96 -96l-53 59q-61 -33 -132 -33q-84 0 -150 47l-82 -67l-83 100l81 60q-34 60 -34 129q0 59 26 111l-84 65l96 96l81 -63q34 21 72 31.5t75 10.5q83 0 145 -32l70 53l75 -98l-53 -44q32 -56 32 -131q0 -76 -37 -140zM266 192.5q29 -27.5 75 -27.5
q40 0 66 25.5t26 70.5q0 42 -24.5 71.5t-73.5 29.5q-42 0 -70 -28.5t-28 -70.5q0 -43 29 -70.5z" />
    <glyph glyph-name="dollar" unicode="$" horiz-adv-x="494" 
d="M431 401q57 -40 57 -111q0 -57 -37 -104.5t-97 -72.5l10 -114h-220l12 103q-42 11 -77 31t-59 48l101 114q24 -21 55 -32.5t63 -11.5q31 0 52.5 10.5t21.5 25.5q0 12 -14 17t-47 5q-6 -1 -18 -1q-50 0 -94.5 22.5t-71.5 60.5t-27 82q0 50 37 93.5t96 65.5l-17 108l195 21
v-126q74 -21 136 -74l-70 -111q-45 25 -80 36.5t-67 11.5q-30 0 -49.5 -9t-19.5 -23q0 -25 70 -25q102 0 159 -40z" />
    <glyph glyph-name="Euro" unicode="&#x20ac;" horiz-adv-x="787" 
d="M504 211q36 18 59.5 44.5t30.5 50.5l163 -56q-12 -70 -62 -129t-124 -93.5t-153 -34.5q-86 0 -161 40.5t-127 110.5t-70 155h-34l-17 196l58 -2q24 79 77.5 141t128 96.5t158.5 34.5q75 0 144.5 -28.5t120.5 -86.5t72 -141l-174 -53q-15 43 -60 76t-106 33
q-49 0 -88.5 -19.5t-62.5 -57.5l131 -4l10 -185h-151q21 -51 63.5 -78.5t95.5 -27.5q42 0 78 18z" />
    <glyph glyph-name="florin" unicode="&#x192;" horiz-adv-x="545" 
d="M311 433l155 6l-43 -177l-128 -1l-27 -261h-187l32 260l-104 -1l25 163l97 4q17 171 82 255.5t179 84.5q89 0 144 -52l-25 -136q-54 27 -92 27q-16 0 -31 -5q-69 -25 -77 -167z" />
    <glyph glyph-name="sterling" unicode="&#xa3;" horiz-adv-x="639" 
d="M401 169l229 5v-174h-621l14 161l115 2q-38 52 -53 126l-62 1l5 156l53 1q14 84 59 157t112 117.5t146 44.5q64 0 125.5 -28t106.5 -78l-99 -137q-46 51 -102 51q-47 0 -74.5 -33.5t-35.5 -88.5l169 4v-175l-155 3q24 -75 68 -115z" />
    <glyph glyph-name="yen" unicode="&#xa5;" horiz-adv-x="742" 
d="M620 74h-150v-75h-200v75h-132l-16 112h147v39l-152 4l15 120l131 -4l-254 332l210 87l159 -232l155 232l200 -49l-252 -376l104 -3l29 -119l-145 3v-34h128z" />
    <glyph glyph-name="asciitilde" unicode="~" horiz-adv-x="407" 
d="M257.5 655.5q-17.5 6.5 -41.5 18.5q-15 8 -30.5 14t-25.5 6q-29 0 -40 -40l-111 11q7 76 43.5 110.5t84.5 34.5q18 0 36 -6t45 -18q3 -1 20.5 -8.5t29.5 -7.5q25 0 30 37l100 -11q-12 -68 -41 -107.5t-67 -39.5q-15 0 -32.5 6.5z" />
    <glyph glyph-name="divide" unicode="&#xf7;" horiz-adv-x="394" 
d="M134.5 529.5q-24.5 29.5 -24.5 66.5q0 35 21 65.5t67 30.5q45 0 69.5 -30t24.5 -71q0 -42 -25.5 -66.5t-64.5 -24.5q-43 0 -67.5 29.5zM9 463h376v-164h-376v164zM156 92q-21 16 -33 39.5t-12 43.5q0 27 14.5 48.5t36.5 33t45 11.5q19 0 39 -11.5t33 -32t13 -44.5
q0 -41 -26 -72.5t-63 -31.5q-26 0 -47 16z" />
    <glyph glyph-name="equal" unicode="=" horiz-adv-x="385" 
d="M9 473l367 -8v-150h-367v158zM9 283h364v-159h-364v159z" />
    <glyph glyph-name="greater" unicode="&#x3e;" horiz-adv-x="486" 
d="M477 190l-405 -192l-59 169l256 121l-260 95l94 169l373 -165z" />
    <glyph glyph-name="less" unicode="&#x3c;" horiz-adv-x="486" 
d="M383 552l94 -169l-260 -95l256 -121l-59 -169l-405 192l1 197z" />
    <glyph glyph-name="multiply" unicode="&#xd7;" horiz-adv-x="670" 
d="M327 239l-175 -167l-143 137l164 145l-156 160l149 142l165 -161l179 172l151 -136l-187 -169l164 -160l-134 -150z" />
    <glyph glyph-name="percent" unicode="%" horiz-adv-x="955" 
d="M115 422q-47 27 -76.5 72.5t-29.5 97.5q0 49 27.5 88.5t75 62t104.5 22.5q54 0 97 -20.5t67.5 -59t24.5 -89.5q0 -52 -26 -98.5t-70 -74.5t-95 -28q-52 0 -99 27zM244 91l283 663l184 8l-268 -773zM248.5 549q16.5 17 16.5 40t-17.5 40t-41.5 17q-23 0 -39.5 -15.5
t-16.5 -37.5q0 -23 19 -42t42 -19q21 0 37.5 17zM655.5 22.5q-44.5 23.5 -71 65t-26.5 93.5q0 51 24.5 95.5t66 71.5t90.5 27q53 0 101 -29t77 -76t29 -99q0 -47 -26 -86.5t-71 -62.5t-98 -23q-51 0 -95.5 23.5zM783 137q19 17 19 41q0 25 -16.5 41.5t-41.5 16.5
q-26 0 -42 -17t-16 -43t14 -41t38 -15q26 0 45 17z" />
    <glyph glyph-name="perthousand" unicode="&#x2030;" horiz-adv-x="1376" 
d="M114.5 400q-47.5 27 -76.5 72.5t-29 97.5q0 50 28 89.5t75.5 61.5t103.5 22q55 0 98 -21t67 -59.5t24 -88.5q0 -52 -26 -98.5t-70 -74.5t-95 -28q-52 0 -99.5 27zM249 91l269 623h184l-254 -725zM248.5 527q16.5 17 16.5 40t-17.5 40t-41.5 17q-23 0 -39.5 -15.5
t-16.5 -37.5q0 -23 19 -42t42 -19q21 0 37.5 17zM654.5 23q-44.5 24 -70.5 65.5t-26 92.5t24.5 95.5t66 71.5t90.5 27q54 0 102 -29t76.5 -76.5t28.5 -98.5q0 -48 -26.5 -87.5t-71.5 -62t-97 -22.5t-96.5 24zM1076.5 29q-47.5 27 -76.5 72.5t-29 97.5q0 50 28 89.5
t75.5 61.5t103.5 22q55 0 98 -21t67 -59.5t24 -88.5q0 -52 -26 -98.5t-70 -74.5t-95 -28q-52 0 -99.5 27zM1210.5 156q16.5 17 16.5 40t-17.5 40t-41.5 17q-23 0 -39.5 -15.5t-16.5 -37.5q0 -23 19 -42t42 -19q21 0 37.5 17zM783 137q19 17 19 41q0 25 -16.5 41.5
t-41.5 16.5q-26 0 -42 -17t-16 -43t14 -41t38 -15q26 0 45 17z" />
    <glyph glyph-name="plus" unicode="+" horiz-adv-x="568" 
d="M546 171l-169 4l2 -167l-190 -13l3 184l-171 4l-12 186l186 -3l3 179l174 -11l2 -170l185 -3z" />
    <glyph glyph-name="plusminus" unicode="&#xb1;" horiz-adv-x="568" 
d="M192 364l-171 4l-12 186l186 -3l3 179l174 -11l2 -170l185 -3l-13 -190l-169 4l2 -167l-190 -13zM546 158l13 -158h-529v158h516z" />
    <glyph glyph-name="at" unicode="@" horiz-adv-x="822" 
d="M618.5 724q89.5 -42 142 -121.5t52.5 -186.5q0 -83 -30.5 -156t-81.5 -117t-109 -44q-53 0 -94 37.5t-45 113.5q-18 -14 -42 -22t-49 -8q-41 0 -76 23t-55.5 62t-20.5 85q0 47 21 85.5t58 61t81 22.5q26 0 47.5 -8t34.5 -22v26h104l13 -313q2 -13 12.5 -22.5t23.5 -9.5
q20 0 40.5 21t34 63t13.5 102q0 130 -72.5 190.5t-190.5 60.5q-92 0 -156 -36t-96.5 -93.5t-32.5 -123.5q0 -72 33.5 -136.5t88.5 -103.5t118 -39q15 0 35.5 2.5t33.5 6.5l97 -91q-76 -38 -163 -38q-107 0 -194 50t-136 137.5t-49 195.5t55.5 197t150 140t206.5 51
q108 0 197.5 -42zM428 346q19 22 19 50q0 26 -16.5 43t-41.5 17q-28 0 -48.5 -19.5t-20.5 -45.5t19.5 -46.5t44.5 -20.5t44 22z" />
    <glyph glyph-name="ampersand" unicode="&#x26;" horiz-adv-x="592" 
d="M577 315l-28 3q18 -40 18 -92q0 -61 -37.5 -115t-103 -87t-144.5 -33q-78 0 -139.5 31t-96 86t-34.5 126q0 56 20 97.5t54 53.5q-35 17 -56 60t-21 96q0 65 34 117.5t93 82t132 29.5q68 0 122.5 -25.5t86 -69.5t31.5 -98l-154 -70q1 47 -23.5 73.5t-62.5 26.5
q-29 0 -51 -21.5t-22 -49.5q0 -38 28.5 -64t71.5 -26l3 -103q-25 0 -48 -14.5t-37 -38t-14 -48.5q0 -35 27.5 -59.5t66.5 -24.5q41 0 70.5 23t29.5 55q0 33 -18 66t-41 37l-6 1v95h255z" />
    <glyph glyph-name="copyright" unicode="&#xa9;" 
d="M195.5 45q-87.5 51 -137 140t-49.5 199q0 100 49 186.5t137.5 138t201.5 51.5q103 0 188.5 -46.5t136 -131t50.5 -194.5q0 -114 -48 -203.5t-134 -140t-196 -50.5q-111 0 -198.5 51zM520 154q59 35 93 96.5t34 137.5q0 67 -33 124t-90.5 91t-126.5 34q-72 0 -132.5 -35
t-95.5 -93.5t-35 -124.5q0 -77 33.5 -137.5t91.5 -94t130 -33.5t131 35zM306 215.5q-40 25.5 -64 69t-24 93.5t24.5 92t66.5 66t92 24q59 0 101.5 -32.5t60.5 -90.5l-94 -33q-7 20 -27.5 34t-43.5 14q-29 0 -51.5 -22t-22.5 -51t22.5 -51t52.5 -22q22 0 40.5 11.5t26.5 29.5
l91 -34q-5 -32 -29 -60.5t-60 -45.5t-75 -17q-47 0 -87 25.5z" />
    <glyph glyph-name="registered" unicode="&#xae;" horiz-adv-x="308" 
d="M225.5 748q33.5 -18 53.5 -50t20 -70t-20.5 -72t-55 -55t-74.5 -21q-39 0 -71 20.5t-50.5 54t-18.5 70.5q0 38 20 70.5t53 51.5t70 19q40 0 73.5 -18zM217.5 560q29.5 28 29.5 68q0 37 -29 61.5t-66 24.5q-41 0 -66 -23.5t-25 -65.5q0 -41 25 -67t63 -26q39 0 68.5 28z
M176 607q8 -17 22 -17v-36q-18 0 -34.5 13.5t-22.5 31.5h-3v-32h-36v120q6 4 16.5 6.5t20.5 2.5q30 0 45 -13.5t15 -36.5q0 -26 -23 -39zM154 640q7 4 7 10q0 7 -4.5 11t-11.5 4q-4 0 -7 -1v-28q9 0 16 4z" />
    <glyph glyph-name="section" unicode="&#xa7;" horiz-adv-x="462" 
d="M107 21q-59 26 -98 69l100 123q24 -26 55.5 -41t64.5 -15q34 0 49.5 4t15.5 19q0 10 -7 12t-33 4q-14 0 -23 1q-60 3 -106 28t-71 66t-25 90q0 57 35 101q-35 45 -35 101q0 51 28 92.5t76.5 65.5t108.5 24q58 0 113 -23t96 -64l-83 -121q-65 52 -129 52q-31 0 -49.5 -6
t-18.5 -19q0 -9 11 -11.5t46 -5.5q14 0 22 -1q96 -6 149.5 -51.5t53.5 -117.5q0 -60 -34 -106q34 -41 34 -97q0 -54 -30.5 -100t-82.5 -72.5t-113 -26.5t-120 26zM288 359.5q19 9.5 19 24.5q0 14 -17.5 22t-48.5 8q-32 0 -50.5 -8t-18.5 -22q0 -15 19 -24.5t48 -9.5
q30 0 49 9.5z" />
    <glyph glyph-name="trademark" unicode="&#x2122;" horiz-adv-x="464" 
d="M198 701l-60 -2l1 -157l-71 -6v161l-55 -1l-4 68l184 4zM384 541l3 121l-29 -121h-50l-33 116l3 -113h-67v221l34 -4v1l59 -7l27 -89l22 94h57h29l16 -217z" />
    <glyph glyph-name="degree" unicode="&#xb0;" horiz-adv-x="284" 
d="M75.5 582q-30.5 17 -48.5 46t-18 63q0 50 38.5 84.5t95.5 34.5q56 0 94 -34.5t38 -84.5q0 -34 -18 -63t-48.5 -46t-66.5 -17t-66.5 17zM176.5 654.5q15.5 16.5 15.5 37.5q0 18 -15.5 31.5t-35.5 13.5q-21 0 -36.5 -13t-15.5 -31q0 -21 16 -38t36 -17t35.5 16.5z" />
    <glyph glyph-name="asciicircum" unicode="^" horiz-adv-x="364" 
d="M216 618l-33 116l-46 -114h-128l104 186h148l94 -187z" />
    <glyph glyph-name="dagger" unicode="&#x2020;" horiz-adv-x="340" 
d="M331 431l-88 1l-1 -515h-145v517l-88 1v142l88 -1v217h146v-220l88 -1v-141z" />
    <glyph glyph-name="daggerdbl" unicode="&#x2021;" horiz-adv-x="346" 
d="M94 206h-85v142h85v87h-79v142h79v216h146v-221h97v-141h-98v-90h94v-143h-94v-281h-145v289z" />
    <glyph glyph-name="acute" unicode="&#xb4;" horiz-adv-x="264" 
d="M9 678l90 128l156 -46l-106 -96z" />
    <glyph glyph-name="caron" unicode="&#x2c7;" horiz-adv-x="345" 
d="M336 820l-89 -99h-140l-98 99h128l37 -51l37 52z" />
    <glyph glyph-name="cedilla" unicode="&#xb8;" horiz-adv-x="187" 
d="M31.5 -151q-25.5 24 -21.5 59l56 2q2 -26 25 -28q11 0 18 7.5t7 19.5q0 13 -10 20t-29 7q-11 0 -62 -6l13 91l70 6l-9 -40q38 3 63.5 -18t25.5 -56q0 -38 -23 -63t-61 -25q-37 0 -62.5 24z" />
    <glyph glyph-name="circumflex" unicode="&#x2c6;" horiz-adv-x="364" 
d="M216 618l-33 116l-46 -114h-128l104 186h148l94 -187z" />
    <glyph glyph-name="dieresis" unicode="&#xa8;" horiz-adv-x="324" 
d="M28 698.5q-19 20.5 -19 48.5q0 26 20 44.5t48 18.5q27 0 45.5 -18t18.5 -46t-19 -48t-45 -20q-30 0 -49 20.5zM201 698q-18 20 -18 49q0 26 20 44.5t48 18.5q27 0 45.5 -18t18.5 -46t-19 -48t-45 -20q-32 0 -50 20z" />
    <glyph glyph-name="grave" unicode="`" horiz-adv-x="264" 
d="M9 760l156 46l90 -128l-140 -14z" />
    <glyph glyph-name="tilde" unicode="&#x2dc;" horiz-adv-x="407" 
d="M257.5 655.5q-17.5 6.5 -41.5 18.5q-15 8 -30.5 14t-25.5 6q-29 0 -40 -40l-111 11q7 76 43.5 110.5t84.5 34.5q18 0 36 -6t45 -18q3 -1 20.5 -8.5t29.5 -7.5q25 0 30 37l100 -11q-12 -68 -41 -107.5t-67 -39.5q-15 0 -32.5 6.5z" />
    <glyph glyph-name="uni0000" horiz-adv-x="36" 
 />
    <glyph glyph-name="uni0000" horiz-adv-x="36" 
 />
    </font>
</defs>
</svg>
